<?xml version="1.0" encoding="UTF-8" standalone="no"?>
<!-- Created with Inkscape (http://www.inkscape.org/) -->

<svg
   width="68.393242"
   height="26.120001"
   viewBox="0 0 18.095711 6.9109168"
   version="1.1"
   id="svg5"
   inkscape:version="1.3.2 (091e20e, 2023-11-25, custom)"
   sodipodi:docname="logo.svg"
   xmlns:inkscape="http://www.inkscape.org/namespaces/inkscape"
   xmlns:sodipodi="http://sodipodi.sourceforge.net/DTD/sodipodi-0.dtd"
   xmlns="http://www.w3.org/2000/svg"
   xmlns:svg="http://www.w3.org/2000/svg"
   xmlns:rdf="http://www.w3.org/1999/02/22-rdf-syntax-ns#"
   xmlns:cc="http://creativecommons.org/ns#"
   xmlns:dc="http://purl.org/dc/elements/1.1/">
  <title
     id="title1583">Logo</title>
  <sodipodi:namedview
     id="namedview7"
     pagecolor="#ffffff"
     bordercolor="#000000"
     borderopacity="0.25"
     inkscape:showpageshadow="2"
     inkscape:pageopacity="0.0"
     inkscape:pagecheckerboard="0"
     inkscape:deskcolor="#d1d1d1"
     inkscape:document-units="mm"
     showgrid="false"
     inkscape:zoom="2.587745"
     inkscape:cx="236.30613"
     inkscape:cy="123.46657"
     inkscape:window-width="1920"
     inkscape:window-height="1009"
     inkscape:window-x="-8"
     inkscape:window-y="-8"
     inkscape:window-maximized="1"
     inkscape:current-layer="layer1" />
  <defs
     id="defs2">
    <rect
       x="138.81207"
       y="286.36823"
       width="280.90317"
       height="139.90508"
       id="rect236" />
    <rect
       x="138.81207"
       y="286.36823"
       width="280.90317"
       height="139.90508"
       id="rect294" />
  </defs>
  <g
     inkscape:label="Слой 1"
     inkscape:groupmode="layer"
     id="layer1"
     transform="translate(-15.264245,-3.5481481)">
    <text
       xml:space="preserve"
       transform="scale(0.26458333)"
       id="text234"
       style="font-size:18.6667px;white-space:pre;shape-inside:url(#rect236);display:inline;fill:#efeeee;stroke:#201b18" />
    <text
       xml:space="preserve"
       transform="scale(0.26458333)"
       id="text292"
       style="font-size:18.6667px;white-space:pre;shape-inside:url(#rect294);display:inline;fill:#efeeee;stroke:#201b18" />
    <path
       id="text4236"
       style="font-size:9.87778px;font-family:Sylfaen;-inkscape-font-specification:Sylfaen;fill:#b3b3b3;stroke:#b3b3b3;stroke-width:0.264583"
       d="m 15.444596,3.6804398 c -0.03215,0 -0.04806,0.015905 -0.04806,0.048059 v 0.2945557 c 0,0.03537 0.01591,0.05271 0.04806,0.05271 l 0.839225,0.077515 c 0.03215,0 0.04858,0.015905 0.04858,0.048059 v 5.5996582 c 0,0.03537 -0.01642,0.053227 -0.04858,0.053227 l -0.839225,0.076998 c -0.03215,0 -0.04806,0.015905 -0.04806,0.048059 v 0.2992073 c 0,0.03215 0.01591,0.04806 0.04806,0.04806 h 2.508374 c 2.569121,0 3.853511,-1.1189696 3.853511,-3.3569017 0,-1.1125353 -0.347266,-1.9498097 -1.041797,-2.5125082 C 20.128031,3.9394539 19.240573,3.6804398 18.102315,3.6804398 Z m 6.98407,0 c -0.03215,0 -0.04806,0.015905 -0.04806,0.048059 v 1.548226 c 0,0.03537 0.01591,0.053227 0.04806,0.053227 h 0.366385 c 0.03215,0 0.04858,-0.013034 0.04858,-0.038757 L 23.041035,4.1724 c 0,-0.025723 0.01642,-0.038757 0.04858,-0.038757 h 1.600936 c 0.02573,0 0.03876,0.016422 0.03876,0.048576 v 5.6621867 c 0,0.028941 -0.01591,0.044846 -0.04806,0.048059 l -0.93586,0.077515 c -0.03537,0.00322 -0.05323,0.020555 -0.05323,0.05271 v 0.255799 c 0,0.03215 0.01786,0.04806 0.05323,0.04806 h 2.831352 c 0.03537,0 0.05271,-0.01591 0.05271,-0.04806 V 10.02269 c 0,-0.032156 -0.01734,-0.049496 -0.05271,-0.05271 l -0.93586,-0.077515 c -0.03215,-0.00322 -0.04806,-0.01912 -0.04806,-0.048059 V 4.1822179 c 0,-0.032154 0.01251,-0.048576 0.03824,-0.048576 h 1.601453 c 0.03215,0 0.04806,0.013034 0.04806,0.038757 l 0.197921,1.1187948 c 0,0.025723 0.01591,0.038757 0.04806,0.038757 h 0.366902 c 0.03215,0 0.04806,-0.017857 0.04806,-0.053227 v -1.548226 c 0,-0.032154 -0.01591,-0.048059 -0.04806,-0.048059 z m 6.115905,0 c -0.02573,0 -0.03876,0.015905 -0.03876,0.048059 v 0.2557984 c 0,0.032154 0.01591,0.048059 0.04806,0.048059 l 0.839225,0.082166 h 0.01964 c 0.01289,0 0.02254,0.00965 0.02894,0.028939 v 5.700944 c 0,0.032154 -0.01642,0.048059 -0.04858,0.048059 l -0.839225,0.077515 c -0.03215,0 -0.04806,0.01734 -0.04806,0.05271 v 0.255799 c 0,0.03215 0.01591,0.04806 0.04806,0.04806 h 2.638599 c 0.03215,0 0.04806,-0.01591 0.04806,-0.04806 v -0.255799 c 0,-0.03537 -0.01591,-0.05271 -0.04806,-0.05271 l -0.839226,-0.077515 c -0.03215,0 -0.04857,-0.015905 -0.04857,-0.048059 v -2.561084 c 0,-0.025723 0.01642,-0.038757 0.04857,-0.038757 h 1.302247 c 0.03215,0 0.04806,0.013034 0.04806,0.038757 l 0.101285,0.8102865 c 0,0.025723 0.01591,0.038757 0.04806,0.038757 h 0.265616 c 0.03537,0 0.05271,-0.016422 0.05271,-0.048576 V 5.9810745 c 0,-0.032154 -0.01734,-0.048059 -0.05271,-0.048059 h -0.265616 c -0.03215,0 -0.04806,0.012517 -0.04806,0.038241 l -0.101285,0.8009847 c 0,0.025723 -0.01591,0.038241 -0.04806,0.038241 h -1.302247 c -0.03215,0 -0.04857,-0.012517 -0.04857,-0.038241 V 4.1822179 c 0,-0.032154 0.01642,-0.048576 0.04857,-0.048576 h 2.160592 c 0.03537,0 0.05323,0.013034 0.05323,0.038757 l 0.192753,1.1187948 c 0,0.025723 0.01785,0.038757 0.05323,0.038757 h 0.361735 c 0.03537,0 0.05271,-0.017857 0.05271,-0.053227 v -1.548226 c 0,-0.032154 -0.01734,-0.048059 -0.05271,-0.048059 z M 17.243969,4.1336421 h 0.858346 c 1.842435,0 2.763655,1.0562679 2.763655,3.1687988 0,0.964626 -0.252239,1.6466411 -0.757059,2.0453532 -0.450159,0.3504808 -1.172195,0.5255493 -2.16576,0.5255493 h -0.699182 c -0.03215,0 -0.04858,-0.015905 -0.04858,-0.048059 V 4.1822179 c 0,-0.032154 0.01642,-0.048576 0.04858,-0.048576 z" />
  </g>
  <metadata
     id="metadata1581">
    <rdf:RDF>
      <cc:Work
         rdf:about="">
        <dc:title>Logo</dc:title>
      </cc:Work>
    </rdf:RDF>
  </metadata>
</svg>
